HIERARCHY
ROOT Hips
{
	OFFSET 0.000000 100.481300 0.000000
	CHANNELS 6 Xposition Yposition Zposition Xrotation Yrotation Zrotation
	JOINT Spine
	{
		OFFSET -0.279200 12.230698 -2.892100
		CHANNELS 3 Xrotation Yrotation Zrotation
		JOINT Spine1
		{
			OFFSET -0.325700 14.269203 -3.374200
			CHANNELS 3 Xrotation Yrotation Zrotation
			JOINT Spine2
			{
				OFFSET -0.372300 16.307602 -0.352600
				CHANNELS 3 Xrotation Yrotation Zrotation
				JOINT Neck
				{
					OFFSET -0.418800 17.814194 8.416900
					CHANNELS 3 Xrotation Yrotation Zrotation
					JOINT Head
					{
						OFFSET 0.000000 7.031097 3.806800
						CHANNELS 3 Xrotation Yrotation Zrotation
						JOINT HeadTop_End
						{
							OFFSET 0.000000 24.646606 12.978600
							CHANNELS 3 Xrotation Yrotation Zrotation
							End Site
							{
								OFFSET 0.000000 27.854965 0.000000
							}
						}
					}
				}
				JOINT LeftShoulder
				{
					OFFSET 16.952999 14.495407 -7.737500
					CHANNELS 3 Xrotation Yrotation Zrotation
					JOINT LeftArm
					{
						OFFSET 9.308998 -2.777710 0.208600
						CHANNELS 3 Xrotation Yrotation Zrotation
						JOINT LeftForeArm
						{
							OFFSET 29.972298 0.000000 0.000000
							CHANNELS 3 Xrotation Yrotation Zrotation
							JOINT LeftHand
							{
								OFFSET 26.026505 0.000000 0.000000
								CHANNELS 3 Xrotation Yrotation Zrotation
								JOINT LeftHandThumb1
								{
									OFFSET 12.240501 -7.147949 9.207150
									CHANNELS 3 Xrotation Yrotation Zrotation
									JOINT LeftHandThumb2
									{
										OFFSET 4.138618 -2.389435 2.389433
										CHANNELS 3 Xrotation Yrotation Zrotation
										JOINT LeftHandThumb3
										{
											OFFSET 2.726913 -1.574387 1.574386
											CHANNELS 3 Xrotation Yrotation Zrotation
											JOINT LeftHandThumb4
											{
												OFFSET 3.941010 -2.275345 2.275342
												CHANNELS 3 Xrotation Yrotation Zrotation
												End Site
												{
													OFFSET -0.005798 5.087799 0.009903
												}
											}
										}
									}
								}
								JOINT LeftHandIndex1
								{
									OFFSET 24.424698 -1.985611 5.953459
									CHANNELS 3 Xrotation Yrotation Zrotation
									JOINT LeftHandIndex2
									{
										OFFSET 6.426697 0.000000 0.000000
										CHANNELS 3 Xrotation Yrotation Zrotation
										JOINT LeftHandIndex3
										{
											OFFSET 5.337898 0.000000 0.000000
											CHANNELS 3 Xrotation Yrotation Zrotation
											JOINT LeftHandIndex4
											{
												OFFSET 4.409401 0.000000 0.000000
												CHANNELS 3 Xrotation Yrotation Zrotation
												End Site
												{
													OFFSET 0.000000 4.409363 0.014373
												}
											}
										}
									}
								}
								JOINT LeftHandMiddle1
								{
									OFFSET 23.810104 0.000000 0.000000
									CHANNELS 3 Xrotation Yrotation Zrotation
									JOINT LeftHandMiddle2
									{
										OFFSET 7.176498 0.000000 0.000000
										CHANNELS 3 Xrotation Yrotation Zrotation
										JOINT LeftHandMiddle3
										{
											OFFSET 6.774902 0.000000 0.000000
											CHANNELS 3 Xrotation Yrotation Zrotation
											JOINT LeftHandMiddle4
											{
												OFFSET 5.403328 0.000000 0.000000
												CHANNELS 3 Xrotation Yrotation Zrotation
												End Site
												{
													OFFSET -0.027702 5.403244 0.017414
												}
											}
										}
									}
								}
								JOINT LeftHandRing1
								{
									OFFSET 22.908401 -0.839279 -6.020567
									CHANNELS 3 Xrotation Yrotation Zrotation
									JOINT LeftHandRing2
									{
										OFFSET 6.337502 0.000000 0.000000
										CHANNELS 3 Xrotation Yrotation Zrotation
										JOINT LeftHandRing3
										{
											OFFSET 5.779297 0.000000 0.000000
											CHANNELS 3 Xrotation Yrotation Zrotation
											JOINT LeftHandRing4
											{
												OFFSET 4.965698 0.000000 0.000000
												CHANNELS 3 Xrotation Yrotation Zrotation
												End Site
												{
													OFFSET 0.000000 4.965668 0.016186
												}
											}
										}
									}
								}
								JOINT LeftHandPinky1
								{
									OFFSET 20.037003 -1.530319 -10.950146
									CHANNELS 3 Xrotation Yrotation Zrotation
									JOINT LeftHandPinky2
									{
										OFFSET 5.254700 0.000000 0.000000
										CHANNELS 3 Xrotation Yrotation Zrotation
										JOINT LeftHandPinky3
										{
											OFFSET 4.810204 0.000000 0.000000
											CHANNELS 3 Xrotation Yrotation Zrotation
											JOINT LeftHandPinky4
											{
												OFFSET 3.647202 0.000000 0.000000
												CHANNELS 3 Xrotation Yrotation Zrotation
												End Site
												{
													OFFSET 0.000000 3.647186 0.011889
												}
											}
										}
									}
								}
							}
						}
					}
				}
				JOINT RightShoulder
				{
					OFFSET -15.141001 14.495407 -7.737500
					CHANNELS 3 Xrotation Yrotation Zrotation
					JOINT RightArm
					{
						OFFSET -9.308998 -2.777710 0.208500
						CHANNELS 3 Xrotation Yrotation Zrotation
						JOINT RightForeArm
						{
							OFFSET -29.972300 0.000000 0.000000
							CHANNELS 3 Xrotation Yrotation Zrotation
							JOINT RightHand
							{
								OFFSET -26.026505 0.000000 0.000000
								CHANNELS 3 Xrotation Yrotation Zrotation
								JOINT RightHandThumb1
								{
									OFFSET -12.240601 -7.148026 9.207092
									CHANNELS 3 Xrotation Yrotation Zrotation
									JOINT RightHandThumb2
									{
										OFFSET -4.138618 -2.389435 2.389433
										CHANNELS 3 Xrotation Yrotation Zrotation
										JOINT RightHandThumb3
										{
											OFFSET -2.726974 -1.574417 1.574421
											CHANNELS 3 Xrotation Yrotation Zrotation
											JOINT RightHandThumb4
											{
												OFFSET -3.941010 -2.275345 2.275343
												CHANNELS 3 Xrotation Yrotation Zrotation
												End Site
												{
													OFFSET 0.005814 5.087799 0.009927
												}
											}
										}
									}
								}
								JOINT RightHandIndex1
								{
									OFFSET -24.424698 -1.985657 5.953444
									CHANNELS 3 Xrotation Yrotation Zrotation
									JOINT RightHandIndex2
									{
										OFFSET -6.426697 0.000000 0.000000
										CHANNELS 3 Xrotation Yrotation Zrotation
										JOINT RightHandIndex3
										{
											OFFSET -5.337898 0.000000 0.000000
											CHANNELS 3 Xrotation Yrotation Zrotation
											JOINT RightHandIndex4
											{
												OFFSET -4.409401 0.000000 0.000000
												CHANNELS 3 Xrotation Yrotation Zrotation
												End Site
												{
													OFFSET 0.000000 4.409363 0.014408
												}
											}
										}
									}
								}
								JOINT RightHandMiddle1
								{
									OFFSET -23.810097 0.000000 0.000000
									CHANNELS 3 Xrotation Yrotation Zrotation
									JOINT RightHandMiddle2
									{
										OFFSET -7.176498 0.000000 0.000000
										CHANNELS 3 Xrotation Yrotation Zrotation
										JOINT RightHandMiddle3
										{
											OFFSET -6.774902 0.000000 0.000000
											CHANNELS 3 Xrotation Yrotation Zrotation
											JOINT RightHandMiddle4
											{
												OFFSET -5.403328 0.000000 0.000000
												CHANNELS 3 Xrotation Yrotation Zrotation
												End Site
												{
													OFFSET 0.027702 5.403244 0.017457
												}
											}
										}
									}
								}
								JOINT RightHandRing1
								{
									OFFSET -22.908302 -0.839325 -6.020576
									CHANNELS 3 Xrotation Yrotation Zrotation
									JOINT RightHandRing2
									{
										OFFSET -6.337502 0.000000 0.000000
										CHANNELS 3 Xrotation Yrotation Zrotation
										JOINT RightHandRing3
										{
											OFFSET -5.779297 0.000000 0.000000
											CHANNELS 3 Xrotation Yrotation Zrotation
											JOINT RightHandRing4
											{
												OFFSET -4.965698 0.000000 0.000000
												CHANNELS 3 Xrotation Yrotation Zrotation
												End Site
												{
													OFFSET 0.000000 4.965668 0.016226
												}
											}
										}
									}
								}
								JOINT RightHandPinky1
								{
									OFFSET -20.037003 -1.530334 -10.950259
									CHANNELS 3 Xrotation Yrotation Zrotation
									JOINT RightHandPinky2
									{
										OFFSET -5.254700 0.000000 0.000000
										CHANNELS 3 Xrotation Yrotation Zrotation
										JOINT RightHandPinky3
										{
											OFFSET -4.810204 0.000000 0.000000
											CHANNELS 3 Xrotation Yrotation Zrotation
											JOINT RightHandPinky4
											{
												OFFSET -3.647202 0.000000 0.000000
												CHANNELS 3 Xrotation Yrotation Zrotation
												End Site
												{
													OFFSET 0.000000 3.647186 0.011917
												}
											}
										}
									}
								}
							}
						}
					}
				}
			}
		}
	}
	JOINT LeftUpLeg
	{
		OFFSET 15.427100 -6.655098 0.678600
		CHANNELS 3 Xrotation Yrotation Zrotation
		JOINT LeftLeg
		{
			OFFSET 4.081073 -39.591068 13.024000
			CHANNELS 3 Xrotation Yrotation Zrotation
			JOINT LeftFoot
			{
				OFFSET -4.081074 -37.707932 -15.979700
				CHANNELS 3 Xrotation Yrotation Zrotation
				JOINT LeftToeBase
				{
					OFFSET 5.346399 -15.068900 20.645000
					CHANNELS 3 Xrotation Yrotation Zrotation
					JOINT LeftToe_End
					{
						OFFSET 2.754700 0.931300 11.300900
						CHANNELS 3 Xrotation Yrotation Zrotation
						End Site
						{
							OFFSET 0.000000 11.669021 0.000000
						}
					}
				}
			}
		}
	}
	JOINT RightUpLeg
	{
		OFFSET -15.569500 -6.655098 0.678600
		CHANNELS 3 Xrotation Yrotation Zrotation
		JOINT RightLeg
		{
			OFFSET -4.081825 -39.591045 13.023800
			CHANNELS 3 Xrotation Yrotation Zrotation
			JOINT RightFoot
			{
				OFFSET 4.081824 -37.707954 -15.979600
				CHANNELS 3 Xrotation Yrotation Zrotation
				JOINT RightToeBase
				{
					OFFSET -5.346400 -15.068900 20.645000
					CHANNELS 3 Xrotation Yrotation Zrotation
					JOINT RightToe_End
					{
						OFFSET -2.754700 0.931300 11.300900
						CHANNELS 3 Xrotation Yrotation Zrotation
						End Site
						{
							OFFSET 0.000000 11.669021 0.000000
						}
					}
				}
			}
		}
	}
}
MOTION
Frames: 5
Frame Time: 0.033333
2.072380 105.576401 21.322849 0.037477 8.669588 1.917285 -3.779501 -0.460583 -0.414848 8.057278 -1.176114 0.081539 8.039425 -1.146608 -0.079724 1.285187 -1.139774 5.522626 -50.511595 -9.398463 13.326965 0.000003 -0.000000 -0.000001 1.255351 -10.266208 1.432388 -63.647685 15.011460 -85.183845 0.000000 -121.085771 0.000002 45.770809 21.869723 -24.235680 1.492918 4.731596 9.835133 -0.000080 12.049531 9.587560 12.935449 24.944110 -1.692532 0.000002 -0.000001 -0.000002 1.189010 8.737112 -36.281750 0.589209 3.296517 -25.667730 0.442272 2.278055 -25.176769 0.000001 -0.000001 -0.000002 2.824468 10.612055 -41.448043 0.390742 2.925256 -21.457109 0.522494 2.494679 -22.951196 0.000001 -0.000002 0.000003 3.231072 11.031851 -42.381768 0.700151 2.571364 -23.530410 1.223115 2.941816 -32.470771 0.000003 -0.000002 0.000002 7.796044 15.119993 -51.542240 0.066894 1.317206 -14.893284 0.429606 2.722266 -19.103356 -0.000000 -0.000002 -0.000005 -0.059650 13.535664 16.007322 -62.010891 9.737396 42.457815 -0.000306 79.726025 0.000264 -19.707536 29.527345 -19.431606 -3.043306 2.407001 -3.624872 -0.409610 -8.201553 -11.801892 2.598732 -13.540502 -0.244741 -0.000002 0.000000 0.000002 -2.253224 -2.535834 29.816409 1.007584 -4.024467 34.006651 -0.046005 -1.336323 24.669569 0.000001 0.000000 -0.000000 1.638225 -10.023881 23.060752 1.452186 -4.702710 42.330063 1.027473 -3.390762 34.853103 0.000001 -0.000000 -0.000001 3.597720 -12.602906 33.058949 1.087359 -3.172974 30.702691 0.005901 -0.912475 27.186255 -0.000003 0.000000 -0.000001 2.988043 -12.299511 27.770538 0.638416 -2.991067 32.533817 -0.725638 -0.786096 26.875473 -0.000000 0.000001 -0.000001 4.347372 11.905621 1.185116 6.830516 5.069893 1.130789 20.596130 1.194569 -6.110096 -29.774902 0.421848 -1.427347 0.000000 -0.000001 0.000000 7.669451 -4.586670 -0.791321 3.068768 -6.016142 -4.739815 8.637405 1.120214 9.299007 -18.328753 1.183500 -3.842510 0.000000 0.000000 0.000000 
2.136101 105.530472 21.382097 -0.067903 8.618862 1.961431 -3.933234 -0.462704 -0.377228 8.190432 -1.180878 0.108060 8.172610 -1.149467 -0.056658 1.231513 -1.355365 5.371293 -50.653598 -9.706191 12.934223 0.000002 -0.000000 0.000001 1.250807 -10.292424 1.314906 -63.600420 15.066682 -85.108535 0.000083 -121.236937 0.000081 45.743635 21.771489 -24.188039 1.566457 4.772092 9.841852 0.001588 12.038242 9.607939 12.971018 24.917459 -1.740421 -0.000001 0.000001 -0.000002 1.198278 8.750557 -36.436501 0.590252 3.298666 -25.691255 0.443180 2.280228 -25.200116 -0.000001 0.000001 -0.000001 2.837333 10.621698 -41.551763 0.390910 2.925684 -21.461897 0.522685 2.495115 -22.956042 0.000003 0.000003 -0.000001 3.219875 11.018427 -42.381238 0.698265 2.567991 -23.491850 1.220733 2.938771 -32.431770 0.000001 0.000002 0.000002 7.829448 15.120622 -51.593890 0.065150 1.307396 -14.794695 0.425770 2.713107 -19.004614 0.000000 0.000000 -0.000000 -0.048909 13.458686 15.907400 -62.025453 9.806944 42.649467 -0.000043 79.680932 0.000019 -19.642463 29.688951 -19.488529 -3.120046 2.520307 -3.614117 -0.411969 -8.223110 -11.693358 2.673079 -13.461913 -0.064695 -0.000002 -0.000000 0.000001 -2.268206 -2.508346 29.813434 1.003744 -4.018785 33.938629 -0.047579 -1.329421 24.601814 -0.000001 -0.000001 -0.000002 1.615433 -9.976296 23.000954 1.452207 -4.702732 42.330388 1.027460 -3.390768 34.853130 0.000000 -0.000000 0.000000 3.562725 -12.563119 32.944045 1.088270 -3.174233 30.718158 0.006306 -0.914017 27.201734 0.000001 0.000000 -0.000001 2.957243 -12.261853 27.644158 0.636762 -2.987904 32.498252 -0.725809 -0.782076 26.840051 0.000002 0.000001 -0.000001 4.366218 11.841404 1.124043 7.068082 5.157737 1.146454 20.595061 1.214037 -6.075517 -29.870873 0.438298 -1.460501 -0.000000 0.000001 -0.000000 7.657462 -4.565204 -0.857889 3.342519 -5.998757 -4.767162 8.584732 1.099346 9.387876 -18.428366 1.203833 -3.856400 0.000000 -0.000000 0.000000 
2.211608 105.323059 21.406422 -0.185787 8.577275 1.935580 -4.081021 -0.479263 -0.270900 8.330831 -1.184948 0.129804 8.313088 -1.151605 -0.038124 1.179144 -1.576592 5.207925 -50.844447 -9.980278 12.483543 -0.000001 -0.000000 0.000002 1.252273 -10.322763 1.290320 -63.487045 15.199121 -85.083298 0.000052 -121.415888 0.000062 45.707800 21.644970 -24.082048 1.657908 4.807744 9.839600 0.002723 12.019217 9.643014 13.014803 24.886786 -1.802503 -0.000001 0.000002 0.000001 1.206209 8.762150 -36.591028 0.593799 3.306012 -25.772513 0.446403 2.287781 -25.281086 0.000001 0.000002 -0.000001 2.853979 10.633028 -41.709445 0.391060 2.926085 -21.466325 0.522855 2.495526 -22.960453 -0.000003 0.000003 0.000003 3.200431 10.996185 -42.366400 0.695628 2.563253 -23.437642 1.217391 2.934481 -32.376879 -0.000004 -0.000000 0.000002 7.857999 15.121743 -51.624578 0.063318 1.296715 -14.686978 0.421600 2.703090 -18.896745 0.000001 0.000000 -0.000003 -0.039397 13.395227 15.812755 -62.051012 9.888931 42.821188 -0.000378 79.595937 0.000334 -19.586216 29.901704 -19.531537 -3.212470 2.656657 -3.600971 -0.415101 -8.252597 -11.545215 2.776998 -13.351455 0.190184 0.000000 0.000000 0.000001 -2.280500 -2.491549 29.838142 1.003895 -4.019005 33.941249 -0.047519 -1.329693 24.604437 0.000000 -0.000001 0.000001 1.601390 -9.953950 22.900149 1.451203 -4.701596 42.315071 1.026604 -3.389530 34.838124 0.000002 0.000000 0.000001 3.529750 -12.518846 32.874199 1.086677 -3.172084 30.691489 0.005628 -0.911351 27.174874 0.000002 0.000001 0.000001 2.924703 -12.220417 27.524677 0.633829 -2.982328 32.435568 -0.726121 -0.775082 26.778228 0.000001 -0.000001 -0.000001 4.022574 11.798460 1.202204 7.990301 5.239459 1.219373 20.333991 1.220785 -6.102814 -30.004526 0.461504 -1.515334 -0.000000 -0.000001 0.000000 7.387970 -4.596989 -0.930001 4.172900 -5.907680 -4.719580 8.256903 1.074587 9.548744 -18.501656 1.242496 -3.934847 -0.000000 -0.000000 0.000000 
2.277078 105.151527 21.434568 -0.327911 8.531430 1.935775 -4.225398 -0.488465 -0.200277 8.473137 -1.191362 0.139210 8.455502 -1.156175 -0.031900 1.153023 -1.813102 5.073751 -51.097376 -10.221828 11.911140 -0.000002 0.000001 -0.000001 1.257854 -10.272377 1.463711 -63.228038 15.367550 -85.298995 0.000027 -121.648183 0.000030 45.788963 21.519491 -23.903038 1.709829 4.813456 9.810339 0.003197 12.002118 9.674602 13.026489 24.884847 -1.825804 -0.000001 0.000001 -0.000000 1.217988 8.779345 -36.825740 0.594551 3.307594 -25.789821 0.447095 2.289379 -25.298051 0.000000 0.000002 0.000002 2.868241 10.638865 -41.923609 0.390781 2.925317 -21.458323 0.522505 2.494778 -22.952099 0.000001 -0.000002 0.000002 3.194754 10.985587 -42.422691 0.694510 2.561199 -23.414104 1.215922 2.932626 -32.352953 0.000003 -0.000002 0.000001 7.860908 15.120526 -51.656485 0.062422 1.291576 -14.635239 0.419578 2.698278 -18.844936 -0.000004 -0.000000 -0.000001 -0.035822 13.365436 15.764995 -62.110715 9.934175 42.941331 0.000098 79.449778 -0.000103 -19.594631 30.163157 -19.484303 -3.273712 2.747003 -3.592118 -0.417015 -8.270417 -11.454883 2.899143 -13.235395 0.507940 -0.000001 -0.000003 0.000002 -2.281883 -2.477237 29.784081 1.004266 -4.019551 33.947840 -0.047373 -1.330362 24.610987 0.000001 0.000001 -0.000002 1.594301 -9.957790 22.714798 1.452419 -4.702987 42.333581 1.027694 -3.391078 34.857088 -0.000001 0.000001 0.000000 3.524731 -12.533948 32.733391 1.086792 -3.172220 30.693204 0.005662 -0.911537 27.176797 0.000000 -0.000000 -0.000001 2.897388 -12.208437 27.382452 0.633699 -2.982062 32.432774 -0.726118 -0.774982 26.777343 0.000004 -0.000000 -0.000002 3.796585 11.761157 1.270749 8.724985 5.291558 1.265837 20.201399 1.215617 -6.187473 -30.257451 0.471510 -1.520164 0.000000 -0.000002 0.000000 7.189679 -4.650512 -1.027087 4.895979 -5.796284 -4.666446 7.990871 1.071124 9.713187 -18.573502 1.284938 -4.029651 0.000000 -0.000000 0.000000 
2.340702 105.023216 21.471878 -0.484580 8.479137 1.930919 -4.368924 -0.507445 -0.113012 8.610346 -1.206079 0.197713 8.592798 -1.168743 0.024627 1.144266 -2.043240 4.769878 -51.406732 -10.427343 11.234028 0.000002 0.000000 0.000001 1.251876 -10.083514 1.679129 -62.898413 15.728643 -85.565168 0.000025 -121.830631 0.000028 45.709006 21.335180 -23.720555 1.699571 5.077422 10.032103 0.003425 11.982786 9.710325 13.052545 24.868920 -1.867656 -0.000002 -0.000000 0.000002 1.224740 8.789859 -37.067744 0.595023 3.308585 -25.800640 0.447515 2.290324 -25.308511 0.000001 0.000001 -0.000002 2.865922 10.629905 -42.058601 0.389774 2.922670 -21.429719 0.521309 2.492097 -22.922654 -0.000001 -0.000002 -0.000003 3.163911 10.954496 -42.335708 0.693762 2.559890 -23.399134 1.214984 2.931409 -32.337196 0.000001 0.000000 -0.000002 7.829235 15.121158 -51.581718 0.061683 1.287353 -14.592896 0.417962 2.694338 -18.802520 -0.000001 -0.000000 -0.000003 -0.020118 13.283004 15.612294 -62.139511 10.060708 43.227762 0.000429 79.324335 -0.000427 -19.469972 30.351916 -19.538050 -3.314087 2.804432 -3.585732 -0.416282 -8.262137 -11.494140 3.041374 -13.114902 0.898892 0.000000 0.000000 -0.000003 -2.270812 -2.488274 29.744596 1.004478 -4.019874 33.951709 -0.047280 -1.330753 24.614859 0.000000 -0.000000 0.000001 1.585626 -9.948949 22.607621 1.450446 -4.700753 42.303695 1.026022 -3.388670 34.827688 -0.000001 0.000000 -0.000001 3.504522 -12.520051 32.610656 1.086154 -3.171365 30.682559 0.005399 -0.910537 27.166669 0.000000 0.000000 -0.000000 2.874284 -12.205418 27.274788 0.635167 -2.984875 32.464292 -0.725944 -0.778764 26.810816 -0.000004 0.000000 -0.000001 3.678173 11.769770 1.343345 9.284404 5.309694 1.271883 20.132266 1.211597 -6.241041 -30.504035 0.479051 -1.517452 -0.000000 -0.000002 0.000000 7.112507 -4.652515 -1.088565 5.416965 -5.751050 -4.652647 7.805493 1.058431 9.870425 -18.640582 1.318155 -4.098759 0.000000 -0.000000 0.000000 
